<?xml version="1.0" encoding="utf-8"?>
<!-- Generator: Adobe Illustrator 26.3.1, SVG Export Plug-In . SVG Version: 6.00 Build 0)  -->
<svg version="1.1" id="Layer_3" xmlns="http://www.w3.org/2000/svg" xmlns:xlink="http://www.w3.org/1999/xlink" x="0px" y="0px"
	 viewBox="0 0 860 678.1" style="enable-background:new 0 0 860 678.1;" xml:space="preserve">
<style type="text/css">
	.st0{fill:#FFFFFF;}
</style>
<g>
	<path class="st0" d="M154.2,102.9l5.7,0.6l5.4,2.8l5.7,0.3l5.7,0.3l3.4-0.5l2.6,2.9l1.1,4.2l3.7,4.5l3.7,2.2l7.7-1.7l3.1-0.2
		l5.1,2.8l7.1,0.8l5.7-0.8l5.4-3.1l4.2-4.8l5.4-5.4l1.7-2.6l2,0.6l-0.8,4.5l4,3.5l4.8,4.6l4.8,3.9l3.1,4l3.4-4.8l1.4-6.5l-0.9-10.8
		l-1.4-6.3l-3.7-5.7l-4.3-4.2l-4.3-6.8l-2.3-5.7l0.6-6v-5.4l-1.4-4.2l-0.8-6.3l3.7-5.4l5.4-3.4l-1.7-4.8l-1.4-5.1l-2.5-9.1l-0.8-9.6
		l-29.8,7.1l21.9,30l3.4,4.6l-1.7,0.9l-8,4l-5.7,11.1l-22.1,2.6l-8,11.6l-12.8,8.5l-31.5-7.3c0,0-0.4,1.2-0.9,2.7
		c-0.5,1.5-1.3,3.8-1.7,5.1c-0.5,1.4-1.1,3.1-1.3,4c-0.2,0.8-0.4,1.5-0.4,1.5l3.4,0.9L154.2,102.9z"/>
	<polygon class="st0" points="401.8,117.4 370.4,91.6 317.5,46.4 287.8,22.9 277.1,20.5 247.4,13.5 243.2,16.9 215.4,23.5 
		216.3,33.1 218.8,42.2 220.2,47.3 221.9,52.1 226.5,53.3 231.9,55 237.8,55.5 245.2,52.4 250.9,52.4 256,53.8 260.8,53.3 
		269.9,56.7 273.9,60.1 279.3,63.7 284.9,64.9 289.7,64.6 294,62.9 298.6,62.9 300.6,66.1 302.2,71.2 304.5,73.7 309.6,74.5 
		316.7,76.2 320.7,81.9 323,87.3 323,91.6 320.7,93.6 317.3,93.8 314.7,94.1 309.9,96.4 305.4,98.9 301.7,100.4 297.7,102.1 
		294.3,103.8 291.2,107.2 287.5,110.9 287.5,113.7 286.3,116.6 284.4,123.1 290.6,124.5 298.8,127.6 302.8,130.7 307.4,131.6 
		311.3,132.8 315.3,132.4 323.5,128.8 329.5,129.3 334,131.3 340.3,135.6 346,137.6 349.9,138.4 353,142.4 360.7,145.8 366.7,148.1 
		373.8,151.4 378.9,158 384.8,165.4 391.4,166.8 394.5,168.5 399.6,174.4 403,172.5 406.4,172.8 403.9,168.2 403,164 405.6,160.5 
		408.1,158.3 411.8,152.9 412.9,146.9 412.9,142.1 414.4,136.7 416,133.3 424.6,131.6 454.1,120.5 	"/>
	<polygon class="st0" points="271.9,124.9 277.2,123.6 280.5,122.2 286.1,121.4 289.3,119.8 294.9,117.7 300,114.8 303.7,116.1 
		306.6,115 308.5,108.9 309.5,106.2 309.5,103.6 313,100.1 316,96.9 319.2,95.3 322.9,93.7 326.4,92.3 330.6,90 335.2,87.9 
		337.6,87.6 340.8,87.3 342.9,85.4 342.9,81.4 340.8,76.4 337,71 330.4,69.4 325.6,68.6 323.5,66.2 321.8,61.4 320,58.5 315.7,58.5 
		311.7,60 307.1,60.3 301.8,59.2 296.8,55.8 293,52.6 284.5,49.4 280,49.9 275.1,48.6 269.8,48.6 262.8,51.5 257.2,51 252.2,49.4 
		247.9,48.3 242.8,51.5 239.4,56.6 240.2,62.5 241.5,66.5 241.5,71.5 241,77.1 243.1,82.5 247.1,88.9 251.2,92.9 254.6,98.2 
		255.9,104 256.7,114.2 255.4,120.4 252.2,124.9 261.3,133.7 267.4,129.2 	"/>
</g>
<polygon class="st0" points="526.8,519.7 519.7,523.4 508.6,527.6 501.8,529.9 490.7,531.9 485.6,534.5 476.5,534.5 468,535.6 
	459.8,537 453.8,538.7 449.3,537.9 443.9,534.2 440.8,529.9 435.4,523.4 433.7,525.9 437.1,541.9 433.9,544.4 432,546.1 
	431.4,550.1 430.9,553.5 420.1,561.4 418.9,564 418.1,566 406.4,577.9 408.1,583.3 407.6,587 405,590.1 402.7,602.5 407.3,604.3 
	412.1,608.5 415.8,608.5 417.5,610.2 420.6,608.2 422.9,609.1 429.2,607.1 433.1,606.5 435.6,607.4 494.1,633.4 495.3,664.5 
	519,639.1 572.3,578.7 671.7,551.5 680.3,548 534.1,512.9 "/>
<g>
	<polygon class="st0" points="237.2,273.2 247,268.9 251.3,266.3 255,263.1 263.1,252.8 264.8,249 269.7,247.3 277.5,240.7 
		282.4,236.1 284.7,233.2 288.1,227.2 291.9,220.5 304.9,217.4 328.5,228.6 330.2,224.9 333.6,222.5 336.5,217.6 331.3,211.6 
		328.2,209.9 321.5,208.4 315.5,200.9 310.3,194.3 303.1,190.9 297.1,188.6 289.3,185.1 286.1,181.1 282.1,180.2 276.3,178.2 
		270,173.9 265.4,171.9 259.3,171.3 251,175.1 247,175.4 243,174.2 238.4,173.4 234.3,170.1 226,167 219.7,165.5 216.5,166.7 
		212.4,165.2 207,168.4 200.9,170.7 197.5,172.5 191.4,173.4 188,174.8 182.2,176.2 177.3,180.8 170.7,185.7 173,188 176.5,189.2 
		183.4,192.6 186.5,195.5 188.8,202.1 192.9,211 194,215.7 194,219.7 194,228.3 193.8,237.5 193.5,243.5 191.4,246.7 192.3,248.8 
		191.1,250.7 192,253.6 191.1,257.7 192,263.4 191.7,266.8 191.7,270 189.7,271.8 188.3,274.6 190,276.7 191.4,280.7 196.3,283 
		203.5,284.7 209,283.6 216.8,283.3 218.8,283.9 222.8,283.6 228,284.1 232,282.1 236,281 236.3,276.3 	"/>
	<path class="st0" d="M141.2,319.4h1.7l2.3-1.7h2l4.9,0.9l1.4-0.6l0.9-2.3l-0.3-4.1l0.6-3.4l1.5-9l-0.3-5.5l-2.6-3.2l-0.9-5.2
		l-3.2-4.5l-4.4-4l-4-1.2l1.1-4.4l1.5-4.6l-4.3-4.9l-5.2-2.3l-3.2-1.2v-1.7l2.3-4.1l-2.3-2l-1.7-1.4l-0.3-4.7l1.2-2.7l0.6-2.9
		l-2.6-2l-4-0.9l-2-1.2l-1.5-4.4l2.9-2h3.8l4.4,1.8l3.8,1.4l4.7-0.3l6.4,0.9l2.9-1.5l4.6,0.9l2.1,4.7l3.2,6.4l5.8,5.3l4.6,1.2h4.9
		l9.9,4.3l7.3,3.2l8.1,3.8l4.7,1.4l7.6-1.4l6.4,0.3l0.3-6.1l0.3-9.3v-8.7v-4.1l-1.2-4.6l-4-9l-2.3-6.7l-3.2-2.9l-7-3.5l-3.5-1.2
		l-2.3-2.3l-9.9-9.6l-3.2-4.1l-4.9-4.1l-5-4.7l-4-3.4l0.9-4.6l-2-0.6l-1.8,2.6l-5.5,5.5l-4.4,5l-5.5,3.1l-5.8,0.9l-7.3-0.9l-5.2-2.9
		l-3.2,0.3l-7.8,1.7l-3.8-2.3l-3.8-4.7l-1.1-4.4l-2.6-2.9l0.9-10.4l-32.5-7.5c0,0-4.6,14.2-4.8,14.7c-0.2,0.5-0.4,1.8-0.4,2.9
		c0,1.1-0.2,2.6-0.6,3.2c-0.3,0.6-0.7,2.5-0.7,4.1c-0.1,1.6-1.1,4.4-2.2,6.2c-1.1,1.8-2.6,4.6-3.3,6.1c-0.7,1.5-1.7,3.1-2.2,3.6
		c-0.5,0.5-0.6,1.6-0.3,2.4c0.3,0.8,1.2,0.8,2,0c0.8-0.8,2.2-0.9,3.2-0.2c1,0.7,2.5,1.2,3.5,1c0.9-0.2,2.4-0.3,3.2-0.3
		c0.8,0,2.1,0.3,2.9,0.7c0.8,0.4,2,1.6,2.7,2.6c0.7,1,1.8,2.7,2.3,3.6c0.6,0.9,1.4,2.4,1.9,3c0.5,0.8,1.3,2.6,1.9,4
		c0.5,1.5,1.3,3.4,1.6,4.4c0.3,1,1,2.9,1.6,4.4c0.5,1.5,1.6,3,2.3,3.4c0.7,0.5,1.6,1.4,1.9,2c0.3,0.6,0.8,2,1.1,3.2
		c0.3,1.2,0.6,2.9,0.6,3.9c0,1,0.7,2.5,1.6,3.3c0.9,0.8,2.2,2.2,3,3.2c0.8,0.9,1.6,2.7,1.8,4c0.2,1.2,1.1,3.3,2,4.6
		c1,1.3,2.4,3.7,3.2,5.4c0.8,1.7,2.2,4.8,3,6.8c0.9,2.1,1.8,4.6,2,5.7c0.3,1,0.9,2.3,1.5,2.9c0.6,0.6,1.7,1.2,2.5,1.3
		c0.8,0.2,1.6,1.1,1.7,2.2c0.2,1.1,0,2.6-0.4,3.4s-0.4,2.3,0.2,3.3c0.5,1.1,1.5,2,2.3,2.2c0.8,0.2,1.9,0.7,2.5,1.2
		c0.5,0.5,1.1,1.3,1.3,2c0.2,0.6,0.5,1.9,0.7,2.7c0.2,0.9,0.9,2,1.6,2.5c0.6,0.4,1.2,2,1.2,3.6c0,1.5,0.8,3.5,1.7,4.3
		c0.9,0.9,2.1,2.3,2.5,3c0.4,0.8,0.6,2,0.4,2.5c-0.2,0.5,0,1.5,0.4,2.1c0.4,0.7,0.4,2,0,3.1c-0.4,1.1-0.6,2.5-0.4,3.4
		c0.2,0.8-0.2,1.6-0.7,1.9c-0.5,0.2-0.9,0.7-0.7,1c0.2,0.4,0.4,0.8,0.6,1c0.1,0.2,0.2,0.9,0.2,1.6c0,0.6,0.7,2,1.7,3.1
		c0.8,1,1.6,1.9,1.6,1.9l4.4-1.5L141.2,319.4z"/>
	<path class="st0" d="M162,348.1l4.3-1.4l0.5,4l2.7,2.1l2.7,1.6l2.9-0.6l4.6-3l3.2-0.2l1.6,3.2l2.2,4.6h3.8l2.4,3v3.2l1.1,2.1h4
		l4.6-0.2l2.2-1.4l1.9-2.4l1.3-3l4.3-1.3l4.3-1.6l9.6-6.2l5.6-5.6l2.7-1.9l2.4-0.3l5.3-6.1l6.4-9.3v-4.1l1.3-8l1.9-8.9l2.9-2.7
		l-5.1-6.4l-0.6-5.3l-2.7-2.7l-8.3-6l-1.8-4.8l-0.6-2.4l-3.7,1.1l-3.8,1.8l-4.8-0.6l-3.7,0.2l-1.9-0.6l-7.2,0.3l-5.1,1l-6.7-1.6
		l-4.6-2.1l-1.3-3.8l-1.6-1.9l1.3-2.7l1.9-1.7v-2.9l0.3-3.2l-0.8-5.4l0.8-3.8l-0.8-2.6l1.1-2l-0.8-1.9l1.9-2.9l-5.9-0.2l-7,1.3
		l-4.3-1.3l-7.5-3.5l-6.7-3l-9.1-4.1h-4.5l-4.3-1l-5.3-4.8l-3-5.9l-1.9-4.2l-4.3-0.8l-2.6,1.3l-5.9-0.8l-4.3,0.3l-3.5-1.3l-4-1.6
		h-3.5l-2.7,1.9l1.3,4l1.9,1l3.8,0.8l2.4,1.9l-0.5,2.7l-1.1,2.4l0.3,4.3l1.6,1.4l2.1,1.8l-2.1,3.8v1.6l2.9,1.1l4.8,2.1l4,4.6
		l-1.3,4.3l-1.1,4l3.7,1.1l4,3.8l2.9,4l0.8,4.9l2.4,3l0.3,5.1l-1.4,8.3l-0.5,3.2l0.3,3.8l-0.8,2l-1.3,0.6l-4.5-0.9h-1.9l-2.1,1.6
		h-1.6l-1.9,1.6l-4,1.3c0,0,0.5,0.6,1.1,1.2c0.6,0.6,1.4,1.9,1.8,2.7c0.4,0.8,0.7,2,0.7,2.6c0,0.5,0.2,1.5,0.5,2.2
		c0.3,0.7,1.2,1.6,2,2c0.8,0.5,1.9,0.6,2.5,0.3c0.6-0.3,1.8,0.1,2.5,0.8c0.8,0.8,2,1.6,2.7,1.9c0.6,0.4,1.7,0.4,2.3,0.2
		c0.6-0.2,1-0.1,0.8,0.4c-0.1,0.5,0.3,1.5,0.9,2.3c0.7,0.8,1.6,1.5,2,1.5c0.4,0,2.1,1.5,3.9,3.3c1.7,1.9,3.8,4.2,4.8,5.1
		c0.9,1,2,2.9,2.4,4.2c0.4,1.3,1,3,1.3,3.8c0.4,0.7,0.9,1.2,1.1,1c0.2-0.1,0.9,0.8,1.4,2c0.6,1.3,1.2,3.1,1.4,4
		c0.1,1,0.3,2.1,0.3,2.5c0,0.3,0,0.6,0,0.6l4,1.3L162,348.1z"/>
</g>
<path class="st0" d="M780.9,384.3l-4.6,5.7l-95.2-13.4l-7.3-28.8l-4.9-1.5l-6.2-4.2l-6.9-5.7l-1.5-3.1v-4.2l3.5-3.1l0.7-2.7
	l-3.7,1.7l-3.4-0.3l-2.6-1.2l-2.6-4c0,0-0.2,0.3-0.6,0.6c-0.3,0.3-0.8,0.4-1.1,0.1c-0.3-0.2-0.7-1.2-0.9-2.1
	c-0.2-0.9-0.5-2.1-0.8-2.7c-0.3-0.5-1.2-1.9-2-2.8c-0.8-1-1.7-2.5-2.1-3.4c-0.4-0.9-0.9-2.5-1.2-3.7c-0.2-1.2-0.7-3.3-1.1-4.6
	c-0.4-1.4-1.3-3-1.9-3.4c-0.7-0.5-2-1-2.7-1.3c-0.8-0.2-1.7-1.1-2.1-2.1c-0.4-0.9-1.2-2.4-1.8-3.3c-0.6-0.8-0.9-1.7-0.6-2
	c0.4-0.3,0.1-1-0.4-1.6c-0.6-0.6-1.3-1.8-1.7-2.7c-0.4-0.8-0.8-2.4-0.9-3.4c-0.1-1-0.6-2.2-1.2-2.7c-0.7-0.5-1.4-0.6-1.6-0.4
	c-0.2,0.2-0.4-0.4-0.4-1.4s0-2.3,0-2.8c0-0.6,0.4-1,1-1c0.6,0,1.5,0.9,2.1,2c0.6,1,1.3,1.1,1.6,0.1c0.3-1,0.7-2.5,1.2-3.3
	c0.4-0.8,0.6-2.4,0.6-3.7c-0.1-1.3-0.6-2.6-1.1-3c-0.6-0.4-1.7-1.1-2.7-1.5c-0.9-0.5-2.1-1.6-2.5-2.4c-0.5-0.9-0.9-2.6-1-3.8
	c-0.1-1.3,0.2-2.1,0.7-1.8c0.5,0.2,1.7,0.7,2.6,1.1c0.9,0.4,0.8-0.2-0.2-1.4c-1.1-1.2-2.4-2.5-2.7-2.9c-0.4-0.5-1.7-1.4-3-2
	c-1.2-0.6-3.1-1.6-4.2-2.3c-1.1-0.6-2.4-1.7-3-2.6c-0.6-0.7-1.6-2.3-2.4-3.4c-0.8-1.1-1.7-1.8-2-1.6c-0.3,0.2-1.2,0.5-2,0.6
	c-0.8,0.1-1.4-0.2-1.4-0.4c0-0.3-0.4-0.7-0.9-1c-0.5-0.2-1.1-1.6-1.4-3c-0.3-1.4-0.9-2.4-1.4-2.1c-0.5,0.2-0.9,0.1-0.9-0.3
	c0-0.4-0.5-1-1.1-1.3c-0.7-0.3-1.2-1-1.2-1.6c0-0.5,0.6-1,1.3-0.9c0.7,0.1,1.7,0.2,2.3,0.4c0.6,0.2,0.5-0.5-0.3-1.4
	c-0.7-0.9-2.3-1.9-3.5-2c-1.3-0.2-2.9-0.8-3.7-1.4c-0.8-0.6-2.2-0.9-3.1-0.7c-0.9,0.3-1.7-0.2-1.7-0.9c0-0.7-0.3-1.6-0.7-2
	c-0.4-0.4-0.7-1.2-0.7-1.8c0-0.6,0.4-1,0.9-0.9c0.6,0.2,0.9-0.2,0.7-0.7c-0.2-0.6-1-1.8-2-3c-0.9-1.1-1.5-2.4-1.3-2.8
	c0.2-0.5-0.4-1.2-1.4-1.7c-1-0.5-2.2-1.5-2.6-2.3c-0.4-0.8-0.8-2.1-0.9-3c-0.1-0.8-0.6-1.9-1.1-2.3c-0.6-0.4-1-1.5-1-2.4
	c0-0.9-0.2-2.5-0.6-3.5c-0.3-0.9-1.2-2.2-1.9-3c-0.6-0.7-1.3-1.3-1.3-1.3h-19.5l-4.6-4l-0.6-3.9l-2.8-6.5l-3.1-1.2l-6.8-0.9
	l-9.1-1.1l-7.7-1.7l-29.5,11.1l-8.5,1.7l-1.7,3.4l-1.4,5.4v4.8l-1.2,6l-3.7,5.4l-2.6,2.3l-2.6,3.4l0.9,4.3l2.6,4.5l6.5,4l15.3,12.8
	l10.8,7.1l5.1,2.5l9.9,4.6l3.7-2h2.5l2.8,1.7l2.6,4l3.4,2l4.3,2l3.4,0.8l2.5,0.9l0.3,0.9l-2.5,40.6v4.8l1.4,3.7l4.8,6L565,336
	l0.2,10.2l0.3,11.1l-1.7,8.8l-1.7,15.1l-2.6,22.7l-9.6,66.1l145.5,35l84.2-33.9l15.4-65.6L780.9,384.3z"/>
<g>
	<polygon class="st0" points="340.2,346.9 342.8,349.5 348.3,352.1 351.4,352.1 357.5,351.8 361.1,350.3 361.1,346.4 361.1,339.8 
		362.2,336.1 365,332 369,328.8 371.8,328.3 378.9,326.5 382.9,325.2 386.5,321.5 391.2,321.8 397.7,318.9 401.7,317.1 404.3,315.7 
		405.3,313.4 401.9,309 401.1,303.4 398.8,299 397,293.3 396.7,289.3 398.8,287 402.2,284.7 402.2,280.7 400.1,275.5 399,272.1 
		398.8,270 377.3,259.8 365.6,262.7 362.2,268.7 359,274.2 356.9,276.8 352.5,281 345.4,287 341,288.6 339.4,292 332.1,301.4 
		328.7,304.2 324.8,306.6 315.9,310.5 315.1,313.4 314.8,317.6 315.4,320 317.2,324.6 325.3,330.4 327.9,333 328.4,338.2 
		333.4,344.5 336.5,344 	"/>
	<polygon class="st0" points="397.5,234.2 394.7,239 391.3,241.3 389.5,245 389.8,247.2 391,250.9 393.2,256.6 393.2,260.8 
		389.5,263.4 387.3,266 387.6,270.2 389.5,276.4 392.2,281.3 393,287.2 396.7,292.1 395.5,294.6 392.7,296 388.4,298 381.3,301.1 
		376.2,300.9 372.3,304.8 368,306.2 360.3,308.3 357.2,308.8 353,312.2 349.9,316.8 348.7,320.7 348.7,327.8 348.7,332.1 
		344.7,333.8 338.2,334.1 334.8,334.1 328.8,331.2 326,328.4 322,325.2 318.6,325.8 315.5,328.7 313.5,338.1 312.1,346.6 
		312.1,350.8 313.5,359.3 315.8,362.1 320.4,373.8 322.3,378 326,385.7 329.7,388.3 334.2,388.3 341.9,388.6 342.5,392 341.9,396 
		342.2,399.1 344.7,400.5 347.6,400.5 353.8,400.5 357.8,401 359.5,408.7 358.6,411.8 358.4,418.1 354.4,427.2 355.5,430.8 
		354.9,436.8 358.1,441 360,446.7 362.3,450.8 366.6,454.4 371.1,459.8 375.7,464.1 375.7,467.7 374.8,471.4 373.1,474.3 
		372.3,477.1 372.3,480.2 374.5,481.7 381.1,483.9 384.4,486.1 389.8,492.7 393,497 398.4,500.7 402.9,501.5 408.9,499.8 
		417.1,498.4 425.6,497.3 434.7,497.3 439.8,494.7 450.9,492.7 457.7,490.4 468.8,486.1 475.9,482.5 483.2,475.7 492.9,409.6 
		495.5,386.9 497.2,371.8 498.8,363 498.6,351.9 498.3,341.7 481.3,328.7 476.4,322.7 475,319 475,314.2 477.6,273.6 477.3,272.8 
		474.7,271.9 471.3,271.1 467.1,269 463.7,267.1 461.1,263.2 458.3,261.4 455.7,261.4 452,263.4 442.1,258.9 437,256.3 426.2,249.2 
		410.9,236.4 404.3,232.5 400.9,232.2 	"/>
</g>
<g>
	<path class="st0" d="M261.4,571.7l-2-4.8l-2.3-3.4l-4.5-2l-2-2v-3.1l0.6-4.3h3.4l1.1-4.5l1.7-1.2l1.4,0.3l3.1,2.8l2.9-2.3v-3.9
		l1.1-1.4l-2-3.7v-4.3l-0.9-5.7l-3.4,1.4l-3.4-1.4l-2.3,2l0.9,2.8l-1.1,3.4l-3.7,0.3l-4.5,0.9l-4-1.2l-0.3-2.6l-3.4-6.2l-3.4-6.5
		l1.7-5.9l2.6-2.8l1.4-4l3.7,1.4l1.1-3.7l2.5-4l2-4.8v-2.8l2.3-1.1c0,0,2,2.3,2.8,2.3c0.8,0,4.5,1.4,4.5,1.4l2.8,3.4l4,0.3h3.4h2.3
		v9.1l5.1,4l4,2.6l3.7-0.6l6.2-6.8l6-8l3.4-4.2l7.4-2l9.1-2l8.8-0.6l-2.3-4l-2-5.7l-3.1-4.2l0.6-6l-1.1-3.7l4-9.1l0.3-6.3l0.9-3.1
		l-1.7-7.7l-4-0.5h-6.2h-2.9l-2.5-1.4l-0.3-3.1l0.6-4l-0.6-3.4l-7.6-0.3h-4.6l-3.7-2.6l-3.7-7.7l-2-4.2l-4.6-11.6l-2.3-2.8l-1.4-8.5
		l-6.8,9.9l-5.7,6.6l-2.5,0.3l-2.9,2l-6,6l-10.2,6.5l-4.6,1.7l-4.6,1.4l-1.4,3.1l-2,2.6l-2.3,1.4l-4.8,0.2h-4.2l-1.1-2.3v-3.4
		l-2.6-3.1h-4l-2.3-4.8l-1.7-3.4l-3.4,0.3l-4.8,3.1l-3.1,0.6l-2.8-1.7l-2.8-2.3l-0.6-4.2l-4.5,1.4l-2.5-3.7l-4.3-1.4
		c0,0,0.3,0.8,0.7,1.9c0.4,1,1,2.4,1.3,3.1c0.3,0.7,0.6,1.9,0.6,2.6c0,0.7,0.4,1.5,0.7,1.7c0.4,0.3,1.1,0.8,1.4,1.3
		c0.4,0.5,1.1,1.4,1.4,2c0.4,0.6,0.5,1.2,0.1,1.3c-0.3,0.1-0.9-0.4-1.4-1c-0.4-0.6-0.4-0.2,0.2,1c0.5,1.1,1.4,2.2,2,2.4
		c0.6,0.2,0.9,0.7,0.7,1.2c-0.2,0.5,0,1.7,0.4,2.8c0.4,1.1,1,2.6,1.3,3.4c0.3,0.8,0.4,2.4,0.3,3.6c-0.2,1.2,0,2.1,0.4,2.2
		c0.4,0.1,0.3,1-0.3,2.2c-0.6,1-1.3,2.7-1.5,3.5c-0.4,0.9-0.6,2.1-0.6,2.8c0,0.7-0.1,1.8-0.3,2.4c-0.2,0.6-0.4,2.2-0.6,3.5
		c-0.2,1.3-0.7,2.4-1.3,2.3c-0.5-0.1-0.6,0.6-0.1,1.5c0.5,0.9,1.1,2.1,1.4,2.6c0.3,0.5,0.9,0.9,1.3,0.9c0.4,0,0.6,0.7,0.6,1.5
		c-0.1,0.9-0.3,2.4-0.4,3.2c-0.2,0.9,0.1,2.3,0.7,3.1c0.6,0.9,0.9,2.1,0.9,2.8c-0.1,0.7-0.7,1.8-1.3,2.3c-0.6,0.5-0.7,1.6-0.2,2.3
		c0.6,0.7,1,2,1,2.9c0,0.9,0.1,1.9,0.3,2.3c0.2,0.4,0.7,1.1,1.1,1.5c0.5,0.5,1,1.9,1.1,3c0.2,1.2,0.8,2.3,1.4,2.4
		c0.6,0.1,1.3,0.7,1.4,1.2c0.2,0.6,0.9,1.3,1.7,1.7c0.8,0.4,1.3,1.1,1.1,1.7c-0.2,0.6,0.2,1.9,0.9,3c0.6,1.1,1.6,2.6,2.1,3.3
		c0.6,0.7,1,1.8,1,2.4c0,0.6,0.6,2,1.3,3.1c0.7,1.1,2,2.7,2.8,3.6c0.9,0.8,2.5,1.9,3.7,2.4c1.2,0.5,2.6,0.8,3.3,0.8
		c0.6,0,1.6,0,2.3,0c0.6,0,1.6,0.5,2.1,1c0.6,0.5,1.6,1.2,2.3,1.6c0.7,0.3,1.4,1.1,1.7,1.7c0.2,0.6,1.4,1.8,2.7,2.7
		c1.2,0.9,3.1,2.2,4.1,3.1c1,0.9,2.6,2.7,3.4,4.1c0.9,1.4,2.1,2.8,2.8,3c0.7,0.2,1.7,0.7,2.1,1c0.5,0.3,0.9,1.2,1,2
		c0,0.8,0.2,2,0.2,2.8c0.1,0.8,0.4,1.6,0.7,2c0.3,0.4,1.1,0.9,1.7,1.3c0.6,0.4,1.3,0.8,1.6,0.9c0.2,0.2,0.4,1.1,0.4,2
		c0,0.9,0.2,2.3,0.4,3.1c0.2,0.8,0.8,1.9,1.1,2.4c0.4,0.6,0.7,1.7,0.7,2.6c0,0.9,0.3,1.9,0.7,2.3c0.4,0.4,1.1,1,1.7,1.3
		c0.5,0.3,1,1.4,1,2.3c0,0.9-0.2,2.2-0.4,2.7c-0.3,0.6,0,1.6,0.4,2.3c0.4,0.7,1.1,1.5,1.5,1.8c0.4,0.3,0.5,1.2,0.3,2
		c-0.2,0.8-0.3,2.4-0.1,3.7c0.1,1.3,1.1,2.7,2.1,3.3c1,0.5,2.4,1.5,3.1,2.1c0.7,0.6,1.3,2.4,1.4,3.9c0.1,1.6,0.4,3.5,0.6,4.3
		c0.1,0.5,0.5,1.1,0.9,1.6l5.6-7.5L261.4,571.7z"/>
	<path class="st0" d="M305.8,576.1l-4.3,1.2l-2.9-6.7l-2.8-8.4l-1.2-2.8l-5.2,0.4l-1.6,4.4l-1.2,4.4l-0.8,4.4l-1.2,2.8l-3.2,0.8
		l-4.8-8.4l-2.9-5.7l-2.4-2.4h-3.2l-3.6,3.6l-5.6-3.2l-2.9-7.1l-0.8-4.5l-2.2-5.9l-4-8l-7.9,10.6c0.4,0.5,0.9,1.1,1.4,1.5
		c1.1,1,2.2,2.6,2.4,3.6c0.2,1,1,2.6,1.6,3.6c0.6,1,2.4,3.7,3.8,6c1.5,2.3,3.6,4.8,4.8,5.4c1.2,0.6,3.3,2.5,4.6,4.2s3.5,3.6,4.8,4.2
		c1.3,0.7,2.7,1.9,3,2.6c0.3,0.8,1.3,1.9,2,2.4c0.8,0.6,2.5,2,3.8,3.3c1.3,1.2,2.3,2.9,2.2,3.8c-0.1,0.9,0,3.5,0.2,5.8
		c0.2,2.3,0.6,5.9,0.8,8c0.2,2.1,0.6,2.8,1,1.5c0.3-1.2,0.8-2.4,1.2-2.7c0.3-0.3,0.9,0.4,1.4,1.6c0.4,1.2,1.4,2.9,2.2,3.8
		c0.8,0.9,1.7,3.1,2,4.8c0.4,1.8,1.8,4.7,3.2,6.5c1.5,1.8,3.4,4.4,4.2,5.8c0.9,1.4,1.4,3.5,1.2,4.6c-0.2,1,0.2,3.2,0.8,4.8
		c0.6,1.5,1.2,2.8,1.2,2.8l5.2-0.8l3.6-2.4l2.4-2l3.6-6.8l4.4-0.8l0.4-6l-3.2-4.4l1.6-6l-0.4-4.4l2.8-6.4l2-0.8l-2.4-4l2.4-2.8
		l-7.2-9.2L305.8,576.1z"/>
	<path class="st0" d="M273.6,498.2h-4l-4.7-0.4l-3.3-4c0,0-4.3-1.7-5.3-1.7c-1,0-3.4-2.7-3.4-2.7l-2.7,1.3v3.4l-2.3,5.7l-3,4.6
		l-1.3,4.4l-4.4-1.7l-1.6,4.6l-3,3.4l-2,7l4,7.6l4,7.4l0.4,3l4.6,1.3l5.3-0.9l4.4-0.3l1.3-4l-1-3.3l2.7-2.3l4,1.6l3-5.6l1.3-5.1
		l4-7.3l5.7-5.3v-10.7H273.6z"/>
	<polygon class="st0" points="335.6,520.4 337.1,518 333.9,515.9 327.9,513.8 325.8,512.5 325.8,509.6 326.6,506.9 328.2,504.3 
		329,500.9 329,497.4 324.8,493.6 320.6,488.6 316.6,485.1 308.5,485.7 300.1,487.6 293.3,489.4 290.1,493.3 284.6,500.7 
		278.8,506.9 275.4,507.5 271.8,505.1 267,501.4 262.6,505.7 259.4,511.4 258.4,515.3 256,519.8 259.2,518.5 260,523.7 260,527.7 
		261.8,531.1 260.8,532.4 260.8,536.1 258.1,538.2 255.2,535.5 253.9,535.3 252.3,536.4 251.3,540.5 248.1,540.5 247.6,544.5 
		247.6,547.4 249.5,549.2 253.6,551 255.7,554.2 257.6,558.6 255.9,560.8 258.5,566 259.9,569.9 260.5,572.8 262.3,577.6 266,579.7 
		268.3,577.3 270.5,577.3 272,578.9 273.9,582.5 277,588.1 279.1,587.5 279.9,585.7 280.4,582.8 281.2,579.9 282.3,577.1 
		285.7,576.8 286.5,578.6 288.3,584.1 290.1,588.6 293,587.8 295.9,588.1 300.6,594.1 304.3,592.3 306.9,591.2 309,579.7 
		311.4,576.8 311.9,573.4 310.4,568.4 321.1,557.3 321.9,555.5 323,553.2 332.9,545.8 333.4,542.7 333.9,539 335.8,537.4 
		338.7,535.1 	"/>
</g>
</svg>
