<?xml version="1.0" encoding="UTF-8"?><svg id="Layer_1" xmlns="http://www.w3.org/2000/svg" viewBox="0 0 32 32"><defs><style>.cls-1{fill:#00ab67;}.cls-2{fill:#fff;}</style></defs><circle class="cls-1" cx="16" cy="16" r="16"/><g><path class="cls-2" d="M21.98,10.23c.05-.69-.01-1.36-.33-1.98-.74-1.44-1.98-2.11-3.56-2.25-.17-.01-.23,.07-.28,.21-.25,.79-.53,1.57-.76,2.37-.29,1.02-.54,2.04-.55,3.11,0,1.43,0,2.86,0,4.81,.04,.99,.1,2.52,.16,4.04h0c0,.16,.19,.23,.31,.14l.06-.05s.02-.04,.04-.05c1.18-2.01,2.37-4.01,3.52-6.04,.75-1.33,1.27-2.75,1.39-4.29Z"/><path class="cls-2" d="M15.32,10.23c-.22-1.38-.65-2.7-1.13-4.01-.07-.18-.16-.25-.34-.21-.31,.05-.62,.08-.92,.16-1.45,.39-2.98,1.62-2.92,3.81,.04,1.44,.48,2.77,1.13,4.03,.63,1.22,1.32,2.41,2.01,3.61,.59,1.03,1.22,2.04,1.84,3.05v.02c.12,.13,.34,.05,.35-.11h0c.06-1.55,.12-3.09,.19-5.03,0-.63,.02-1.65,0-2.67-.03-.89-.06-1.78-.2-2.65Z"/><path class="cls-2" d="M13.86,20.72c-1.51-2.99-3.17-5.89-5.1-8.63-.52-.74-1.08-1.44-1.64-2.15-.23-.29-.28-.28-.55-.02-.7,.67-1.24,1.45-1.58,2.36-.42,1.15-.38,2.27,.27,3.34,.34,.56,.81,1.02,1.33,1.41,2.24,1.69,4.64,3.12,7.13,4.39,.07,.04,.15,.07,.22,.09,.12,.04,.23-.08,.18-.19-.08-.2-.17-.41-.27-.61Z"/><path class="cls-2" d="M25.37,17.07c.51-.39,.97-.84,1.33-1.38,.61-.94,.72-1.96,.43-3.02-.29-1.09-.92-1.99-1.73-2.77-.25-.24-.28-.23-.52,.03-.1,.11-.25,.29-.34,.4-1.55,1.97-2.91,4.06-4.14,6.24-.85,1.5-1.64,3.04-2.45,4.56-.04,.08-.07,.16-.1,.24-.03,.1,.06,.2,.16,.16,.11-.04,.22-.08,.33-.14,.9-.49,1.81-.97,2.7-1.48,1.49-.87,2.96-1.78,4.32-2.84Z"/><path class="cls-2" d="M29.06,17.05c-.02-.16-.06-.32-.1-.51-.02-.08-.11-.12-.18-.08-3.47,1.89-6.91,3.73-10.19,5.97-.07,.05-.04,.15,.05,.16h0c1.6,.02,3.2,.06,4.81,.07,.81,0,1.61-.02,2.4-.29,1.26-.44,2.29-1.15,2.86-2.4,.43-.93,.47-1.91,.37-2.91Z"/><path class="cls-2" d="M13.34,22.37c-3.23-2.2-6.68-4.04-10.13-5.93-.06-.03-.12,0-.15,.05-.02,.06-.04,.1-.04,.14-.05,.39-.12,.78-.12,1.17-.02,1.1,.22,2.14,.94,3,.98,1.18,2.29,1.73,3.79,1.8,1.19,.05,2.39,.04,3.58,.04,.69,0,1.38-.03,2.06-.05,.12,0,.16-.16,.07-.22Z"/><path class="cls-2" d="M13.15,23.25c-2.57,.07-5.14,.14-7.74,.22-.05,0-.09,.06-.07,.11,.01,.03,.02,.05,.03,.07,.29,.53,.65,1.01,1.08,1.45,.88,.89,1.89,1.11,3.08,.68,1.42-.5,2.55-1.41,3.67-2.39,.06-.05,.02-.14-.05-.14Z"/><path class="cls-2" d="M26.62,23.47c-2.63-.07-5.26-.15-7.88-.22-.07,0-.1,.08-.04,.13h0c.49,.39,.97,.8,1.48,1.17,.78,.57,1.62,1.04,2.55,1.31,.72,.21,1.43,.23,2.1-.2,.81-.52,1.39-1.25,1.84-2.09,0-.01,0-.02,0-.05,0-.03-.02-.05-.05-.05Z"/></g></svg>