<?xml version="1.0" encoding="utf-8"?>
<!-- Generator: Adobe Illustrator 26.3.1, SVG Export Plug-In . SVG Version: 6.00 Build 0)  -->
<svg version="1.1" id="Layer_1" xmlns="http://www.w3.org/2000/svg" xmlns:xlink="http://www.w3.org/1999/xlink" x="0px" y="0px"
	 viewBox="0 0 73.7 73.7" style="enable-background:new 0 0 73.7 73.7;" xml:space="preserve">
<style type="text/css">
	.st0{fill:#FFFFFF;}
</style>
<g>
	<path class="st0" d="M31.34,56.12c-0.86,0.5-1.57,0.09-1.57-0.91l0.01-7.43c0-1,0-2.63,0-3.63l0-7.43c0-1,0.71-1.41,1.57-0.91
		l11.17,9.26c0.86,0.5,0.86,1.32,0,1.82L31.34,56.12z"/>
	<g>
		<path class="st0" d="M60.47,25.11H13.23c-1.1,0-1.99,0.89-1.99,1.99v36.98c0,1.1,0.89,1.99,1.99,1.99h47.23
			c1.1,0,1.99-0.89,1.99-1.99V27.1C62.46,26,61.57,25.11,60.47,25.11z M52.62,61.72h-36.2V30.21h36.2V61.72z M59.09,41.11h-2.81
			v-2.81h2.81V41.11z M59.09,35.32h-2.81v-2.81h2.81V35.32z"/>
		<g>
			<path class="st0" d="M36.85,23.7c-0.46,0-0.92-0.16-1.3-0.48L21.39,11.17c-0.84-0.72-0.94-1.98-0.23-2.82
				c0.72-0.84,1.98-0.94,2.82-0.23l14.16,12.05c0.84,0.72,0.94,1.98,0.23,2.82C37.98,23.46,37.42,23.7,36.85,23.7z"/>
		</g>
		<g>
			<path class="st0" d="M36.85,23.7c-0.56,0-1.11-0.23-1.51-0.68c-0.73-0.83-0.65-2.1,0.18-2.83l10.75-9.43
				c0.83-0.73,2.1-0.65,2.83,0.18c0.73,0.83,0.65,2.1-0.18,2.83L38.17,23.2C37.79,23.53,37.32,23.7,36.85,23.7z"/>
		</g>
	</g>
</g>
</svg>
