<?xml version="1.0" encoding="utf-8"?>
<!-- Generator: Adobe Illustrator 26.3.1, SVG Export Plug-In . SVG Version: 6.00 Build 0)  -->
<svg version="1.1" id="Layer_1" xmlns="http://www.w3.org/2000/svg" xmlns:xlink="http://www.w3.org/1999/xlink" x="0px" y="0px"
	 viewBox="0 0 32 32" style="enable-background:new 0 0 32 32;" xml:space="preserve">
<style type="text/css">
	.st0{fill:#FFE600;}
	.st1{fill:#FFFFFF;}
</style>
<circle class="st0" cx="16" cy="16" r="16"/>
<path class="st1" d="M10.6,12c0-1.5,0.1-3,1.2-4.2c1.5-1.7,4-2.3,6.3-1.5c2.1,0.8,3.3,2.5,3.3,4.9c0,0.7,0,1.4,0,2.1
	c0,0.6,0.2,0.7,0.7,0.5c0.3-0.1,0.6-0.2,0.9-0.3c0.5-0.1,0.9-0.1,1.1,0.4c0.2,0.5-0.1,0.8-0.4,1.1c-0.4,0.3-0.8,0.6-1.3,0.9
	c-0.9,0.4-0.9,1.1-0.5,1.8c0.7,1.6,2,2.7,3.5,3.6c0.2,0.1,0.7,0.1,0.6,0.5c0,0.4-0.4,0.4-0.7,0.6c-0.4,0.2-0.8,0.3-1.2,0.4
	c-0.4,0.1-0.8,0.3-0.8,0.9c0,0.5-0.4,0.6-0.8,0.6c-1.5-0.1-2.8,0.5-4.1,1.2c-1.6,1-3.3,0.9-5-0.1c-1.2-0.7-2.4-1.2-3.8-1.1
	c-0.5,0-0.9-0.1-1-0.7c-0.1-0.6-0.7-0.7-1.1-0.8c-0.6-0.2-1.4-0.3-1.5-0.8c-0.1-0.5,0.8-0.6,1.2-0.9C8.4,20,9.4,19,10,17.7
	c0.5-1,0.4-1.3-0.5-1.9c-0.4-0.3-0.9-0.6-1.3-0.9c-0.3-0.3-0.6-0.6-0.3-1.1c0.2-0.4,0.7-0.4,1.1-0.3c0.5,0.1,1.1,0.8,1.5,0.2
	C10.8,13.4,10.5,12.6,10.6,12L10.6,12z"/>
</svg>
