<?xml version="1.0" encoding="utf-8"?>
<!-- Generator: Adobe Illustrator 27.7.0, SVG Export Plug-In . SVG Version: 6.00 Build 0)  -->
<svg version="1.1" id="_ÎÓÈ_1" xmlns="http://www.w3.org/2000/svg" xmlns:xlink="http://www.w3.org/1999/xlink" x="0px" y="0px"
	 viewBox="0 0 32 32" style="enable-background:new 0 0 32 32;" xml:space="preserve">
<style type="text/css">
	.st0{fill:#FFFFFF;}
	.st1{fill:#46B4E6;}
</style>
<g>
	<path class="st0" d="M31.5,16c0,2.7-0.7,5.2-2,7.7s-3.3,4.4-5.7,5.7c-2.5,1.4-5,2-7.7,2s-5.2-0.7-7.7-2c-2.5-1.4-4.4-3.3-5.7-5.7
		s-2-5-2-7.7s0.7-5.3,2.1-7.8s3.3-4.4,5.8-5.7c2.5-1.3,5-2,7.6-2s5.1,0.7,7.6,2s4.4,3.2,5.8,5.7S31.5,13.3,31.5,16L31.5,16z"/>
	<g>
		<ellipse class="st1" cx="16" cy="16" rx="15.5" ry="15.5"/>
		<path class="st0" d="M24.1,8.3l-3.3,15.9c-0.1,0.5-0.5,0.8-1,0.8c-0.2,0-0.4-0.1-0.6-0.2L8.4,17.7L3.7,16
			c-0.3-0.1-0.5-0.1-0.5-0.4c0-0.3,0.2-0.4,0.5-0.5c13.1-4.9,19.6-7.5,19.7-7.5c0.2,0,0.3,0.1,0.5,0.2C24,7.9,24.1,8.1,24.1,8.3
			L24.1,8.3z"/>
	</g>
</g>
<path class="st1" d="M17.3,12.1c0,0-3.5,2.2-10.5,6.7l1.4,4.8l0.3-3.1c6-5.4,9-8.1,9-8.2c0,0,0-0.1,0-0.1
	C17.5,12.2,17.4,12.1,17.3,12.1L17.3,12.1z"/>
</svg>
