<?xml version="1.0" encoding="utf-8"?>
<!-- Generator: Adobe Illustrator 27.7.0, SVG Export Plug-In . SVG Version: 6.00 Build 0)  -->
<svg version="1.1" id="Layer_1" xmlns="http://www.w3.org/2000/svg" xmlns:xlink="http://www.w3.org/1999/xlink" x="0px" y="0px"
	 viewBox="0 0 32 32" style="enable-background:new 0 0 32 32;" xml:space="preserve">
<style type="text/css">
	.st0{fill:#25F4EE;}
	.st1{fill:#FE2C55;}
	.st2{fill:#FFFFFF;}
</style>
<g>
	<circle cx="16" cy="16" r="15.5"/>
	<path class="st0" d="M19.7,5.2V4.7h0c0,0,0,0,0,0s0,0,0,0H16v8.7v5.7l0,0.6c-0.1,1.6-1.4,2.9-3.1,2.9c-1.7,0-3.1-1.4-3.1-3.1
		c0-1.7,1.4-3.1,3.1-3.1c0.3,0,0.7,0.1,1,0.2v-3.9c-0.3-0.1-0.7-0.1-1-0.1c-3.8,0-6.9,3.1-6.9,6.9s3.1,6.9,6.9,6.9
		c3.7,0,6.7-2.9,6.8-6.6h0V12c2.6,1.9,5.1,1.6,5.1,1.6s0-3.2,0-3.7C20.6,9.6,19.9,6.4,19.7,5.2z"/>
	<path class="st1" d="M20.9,6.2V5.7h0c0,0,0,0,0,0s0,0,0,0h-3.7v8.7v5.7l0,0.4l0,0.2c-0.1,1.6-1.4,2.9-3.1,2.9
		c-1.7,0-3.1-1.4-3.1-3.1c0-1.7,1.4-3.1,3.1-3.1c0.3,0,0.7,0.1,1,0.2v-3.9c-0.3-0.1-0.7-0.1-1-0.1c-3.8,0-6.9,3.1-6.9,6.9
		s3.1,6.9,6.9,6.9c3.7,0,6.7-2.9,6.8-6.6h0V13c2.6,1.9,5.1,1.6,5.1,1.6s0-3.2,0-3.7C21.8,10.7,21,7.5,20.9,6.2z"/>
	<path class="st2" d="M22,9c-1.4-0.9-2-2.4-2.2-3.3h-2.6v8.7v5.7v0.4v0.2c-0.1,1.6-1.4,2.9-3.1,2.9c-1,0-1.9-0.5-2.5-1.3
		c-1-0.5-1.8-1.6-1.8-2.8c0-1.7,1.4-3.1,3.1-3.1c0.3,0,0.7,0.1,1,0.2v-3c-3.7,0.1-6.7,3.2-6.7,6.9c0,1.8,0.7,3.5,1.9,4.8
		c1.1,0.7,2.4,1.1,3.8,1.1c3.7,0,6.7-2.9,6.8-6.6V12c2.6,1.9,5.1,1.6,5.1,1.6s0-1.7,0-2.9C23.4,10.4,22.5,9.8,22,9z"/>
</g>
</svg>
