<?xml version="1.0" encoding="utf-8"?>
<!-- Generator: Adobe Illustrator 27.8.1, SVG Export Plug-In . SVG Version: 6.00 Build 0)  -->
<svg version="1.1" id="Layer_1" xmlns="http://www.w3.org/2000/svg" xmlns:xlink="http://www.w3.org/1999/xlink" x="0px" y="0px"
	 viewBox="0 0 32 32" style="enable-background:new 0 0 32 32;" xml:space="preserve">
<g>
	<path d="M16,0C7.2,0,0,7.2,0,16s7.2,16,16,16s16-7.2,16-16S24.8,0,16,0z M20.1,25.7c-0.6-0.8-1.2-1.6-1.7-2.4
		c-1.3-1.7-2.5-3.4-3.8-5.1c-1.6,1.7-3.2,3.4-4.8,5.1c-0.7,0.8-1.5,1.6-2.2,2.4H5.7c0.7-0.8,1.5-1.6,2.2-2.4c1-1.1,2-2.2,3.1-3.3
		c0.9-1,1.9-2,2.8-3c-0.9-1.3-1.9-2.6-2.8-3.9c-1.7-2.3-3.3-4.5-5-6.8h5.9c1.8,2.4,3.5,4.7,5.3,7.1c2.2-2.4,4.4-4.7,6.6-7.1h1.9
		c-2.6,2.7-5.1,5.5-7.7,8.2c2.2,2.9,4.4,5.8,6.6,8.7c0.6,0.8,1.2,1.6,1.8,2.4H20.1z"/>
	<path d="M17.1,15.6c-0.3-0.4-0.6-0.8-0.9-1.2c-1-1.3-1.9-2.6-2.9-3.9l-2.1-2.8H8.6l6.1,8.3l0.9,1.2l5.2,7.1h2.8
		c0-0.1-0.1-0.1-0.1-0.2C21.3,21.3,19.2,18.4,17.1,15.6z"/>
</g>
</svg>
